<svg width="512" height="512" viewBox="0 0 24 24" fill="none" xmlns="http://www.w3.org/2000/svg">
    <path d="M9.17157 2H14.8284L22 9.17157V14.8284L14.8284 22H9.17157L2 14.8284V9.17157L9.17157 2Z" fill="#09090b"/>
    <path d="M9.17157 2H14.8284L22 9.17157V14.8284L14.8284 22H9.17157L2 14.8284V9.17157L9.17157 2Z" stroke="#FAFAFA" stroke-opacity="0.5" stroke-width="1.5" stroke-linecap="round" stroke-linejoin="round"/>
    <path d="M7 15L12 9L17 15" stroke="#FAFAFA" stroke-width="1.5" stroke-linecap="round" stroke-linejoin="round"/>
    <path d="M12 9L12 7" stroke="#FAFAFA" stroke-width="1.5" stroke-linecap="round" stroke-linejoin="round"/>
    <path d="M12 6C12.5523 6 13 5.55228 13 5C13 4.44772 12.5523 4 12 4C11.4477 4 11 4.44772 11 5C11 5.55228 11.4477 6 12 6Z" fill="#FAFAFA" stroke="#FAFAFA" stroke-width="0.5"/>
</svg>
